<svg xmlns="http://www.w3.org/2000/svg" xmlns:xlink="http://www.w3.org/1999/xlink" version="1.1" id="Capa_1" x="0px" y="0px" viewBox="0 0 511.999 511.999" style="enable-background:new 0 0 511.999 511.999;" xml:space="preserve" width="512px" height="512px">
<g>
	<g>
		<path d="M255.999,0C165.413,0,91.716,73.697,91.716,164.283v183.432c0,90.587,73.697,164.284,164.284,164.284    c90.586,0,164.283-73.697,164.283-164.284V164.283C420.283,73.697,346.586,0,255.999,0z M256,30.781    c72.817,0,132.195,58.602,133.472,131.119H271.394v-34.63c0-8.5-6.89-15.391-15.391-15.391c-8.5,0-15.391,6.891-15.391,15.391    v34.63H122.527C123.804,89.383,183.182,30.781,256,30.781z M389.502,347.716c0,73.614-59.889,133.503-133.502,133.503    c-73.614,0-133.503-59.889-133.503-133.503V192.682h118.115v34.63c0,8.5,6.891,15.391,15.391,15.391    c8.501,0,15.391-6.891,15.391-15.391v-34.63h118.108V347.716z" fill="#D80027"/>
	</g>
</svg>
